<svg xmlns="http://www.w3.org/2000/svg" viewBox="0 0 2736 1824"><defs><style>.cls-1{fill:#06004a;}.cls-2,.cls-3,.cls-4,.cls-5,.cls-6,.cls-7,.cls-8{fill:none;stroke-width:27px;}.cls-2{stroke:#fff;stroke-miterlimit:10;}.cls-3{stroke:#d7ff00;}.cls-3,.cls-4,.cls-5,.cls-6,.cls-7,.cls-8{stroke-linecap:round;stroke-linejoin:round;}.cls-4{stroke:#edaaff;}.cls-5{stroke:#7ff6ff;}.cls-6{stroke:#3fff65;}.cls-7{stroke:#fc55ff;}.cls-8{stroke:#ff521f;}</style></defs><g id="Layer_3" data-name="Layer 3"><rect class="cls-1" width="2736" height="1824"/></g><g id="Layer_2" data-name="Layer 2"><circle class="cls-2" cx="1525.96" cy="1117.05" r="48.32"/><circle class="cls-2" cx="1164.43" cy="1110.23" r="48.32"/><line class="cls-3" x1="1271.16" y1="1100.42" x2="1419.21" y2="1106.33"/><path class="cls-3" d="M1066.38,1090.38c-36.64,1.79-53-1-62.81-14.17s-12.51-82.08,15.32-110.68c14.54-15.08,33.94-14.65,42.05-15.57"/><path class="cls-3" d="M1665.19,951.49c10.08.32,32.49,4.58,44.66,24.66,11,18.12,5.72,122.06-14.36,135.34-29.28,10.21-44.26,3.74-69.11,1"/><path class="cls-3" d="M1663.83,919.32c-5.11-63.32-14.81-132.76-27.06-152.17s-46.4-24.88-62-24.51"/><path class="cls-3" d="M1075.06,919.83c11.75-91.92,12.26-133.77,29.62-154.21s43.45-22.54,59.75-23"/><path class="cls-4" d="M1194.21,813.11l18.39-122.05c35.31,2.12,56.42,6.22,56.42,39.24s-24.19,34.06-63.74,32.08"/><path class="cls-3" d="M1212.43,688.51"/><path class="cls-5" d="M1337,752.09c-6,32.34-10.42,63.18-4.08,83.23"/><path class="cls-5" d="M1331.4,768.17c-63.85-25.53-56.17,63.06-1.47,38.84"/><path class="cls-3" d="M1430.47,722.21"/><path class="cls-6" d="M1371.74,798.81c-2.34-23.95.79-52.1,7.15-82.72"/><path class="cls-6" d="M1430,720.17c-16.25,2.35-38.37,19.71-56.7,39.34"/><path class="cls-7" d="M1475.4,696.17q-4.34,50.55-8.68,101.11"/><path class="cls-7" d="M1526,723.74c-14.3,9.2-34.22,18.39-48.51,27.58"/><path class="cls-7" d="M1522.38,813.11c-7.56-46-20.45-59.5-36.25-63.83"/><path class="cls-8" d="M1432.51,896.85c-6.64,82,90,88.47,78.77-9.57"/><path class="cls-8" d="M1224.94,883.83q-3.59,39.82-7.15,79.66"/><path class="cls-8" d="M1279.06,890l-53.87,29.87"/><path class="cls-8" d="M1278,948.94l-54.38-27.32"/><path class="cls-8" d="M1335,880.26l-4.09,74.55"/><path class="cls-8" d="M1392.94,885.87,1336.51,916"/><path class="cls-8" d="M1391.66,950.47,1336.51,916"/></g></svg>